<?xml version="1.0" encoding="UTF-8"?>
<svg xmlns="http://www.w3.org/2000/svg" xmlns:xlink="http://www.w3.org/1999/xlink" width="596pt" height="114pt" viewBox="0 0 596 114" version="1.1">
<g id="surface1">
<path style=" stroke:none;fill-rule:evenodd;fill:rgb(0%,28.599548%,53.69873%);fill-opacity:1;" d="M 352.914063 12.425781 L 340.261719 12.425781 L 320.714844 102.191406 L 333.851563 102.191406 L 352.914063 12.425781 "/>
<path style=" stroke:none;fill-rule:evenodd;fill:rgb(0%,28.599548%,53.69873%);fill-opacity:1;" d="M 372.355469 12.425781 L 359.699219 12.425781 L 340.152344 102.191406 L 353.289063 102.191406 L 372.355469 12.425781 "/>
<path style=" stroke:none;fill-rule:nonzero;fill:rgb(0%,28.599548%,53.69873%);fill-opacity:1;" d="M 373.746094 58.863281 C 373.429688 60.398438 373.328125 61.855469 373.453125 63.230469 C 373.578125 64.609375 373.933594 65.8125 374.519531 66.839844 C 375.105469 67.867188 375.902344 68.6875 376.914063 69.296875 C 377.925781 69.90625 379.15625 70.210938 380.613281 70.210938 C 382.246094 70.210938 383.742188 69.890625 385.109375 69.246094 C 386.476563 68.601563 387.664063 67.71875 388.675781 66.605469 C 389.6875 65.488281 390.527344 64.191406 391.203125 62.707031 C 391.878906 61.226563 392.355469 59.632813 392.640625 57.925781 C 393.347656 54.507813 393.023438 51.886719 391.65625 50.054688 C 390.289063 48.226563 388.257813 47.308594 385.5625 47.308594 C 384.070313 47.308594 382.679688 47.605469 381.382813 48.199219 C 380.089844 48.792969 378.9375 49.601563 377.925781 50.628906 C 376.914063 51.660156 376.054688 52.878906 375.34375 54.289063 C 374.632813 55.703125 374.101563 57.226563 373.746094 58.863281 Z M 368.53125 82.96875 L 365.339844 82.96875 L 373.480469 45.21875 L 376.675781 45.21875 L 375.664063 49.976563 L 375.769531 49.976563 C 376.40625 49.105469 377.171875 48.320313 378.058594 47.625 C 378.945313 46.925781 379.867188 46.351563 380.824219 45.898438 C 381.785156 45.445313 382.75 45.097656 383.726563 44.851563 C 384.699219 44.609375 385.632813 44.484375 386.519531 44.484375 C 388.753906 44.484375 390.582031 44.851563 392 45.585938 C 393.421875 46.316406 394.484375 47.320313 395.195313 48.589844 C 395.902344 49.863281 396.300781 51.371094 396.390625 53.113281 C 396.480469 54.855469 396.3125 56.722656 395.886719 58.707031 C 395.460938 60.589844 394.820313 62.402344 393.96875 64.148438 C 393.121094 65.890625 392.046875 67.414063 390.75 68.722656 C 389.457031 70.03125 387.945313 71.074219 386.226563 71.859375 C 384.507813 72.644531 382.597656 73.035156 380.507813 73.035156 C 378.554688 73.035156 376.769531 72.609375 375.15625 71.753906 C 373.542969 70.902344 372.414063 69.636719 371.777344 67.964844 L 368.53125 82.96875 "/>
<path style=" stroke:none;fill-rule:nonzero;fill:rgb(0%,28.599548%,53.69873%);fill-opacity:1;" d="M 421.550781 56.878906 C 421.835938 55.554688 421.914063 54.308594 421.789063 53.140625 C 421.664063 51.972656 421.335938 50.960938 420.804688 50.109375 C 420.273438 49.253906 419.511719 48.574219 418.519531 48.070313 C 417.523438 47.5625 416.316406 47.308594 414.898438 47.308594 C 413.480469 47.308594 412.175781 47.570313 410.984375 48.09375 C 409.796875 48.617188 408.726563 49.3125 407.765625 50.1875 C 406.808594 51.058594 405.976563 52.070313 405.265625 53.21875 C 404.554688 54.371094 403.988281 55.589844 403.5625 56.878906 Z M 402.976563 59.492188 C 402.65625 60.957031 402.550781 62.34375 402.65625 63.648438 C 402.765625 64.957031 403.101563 66.089844 403.671875 67.046875 C 404.234375 68.007813 405.042969 68.773438 406.089844 69.347656 C 407.136719 69.925781 408.421875 70.210938 409.949219 70.210938 C 412.039063 70.210938 413.949219 69.671875 415.671875 68.589844 C 417.390625 67.511719 418.710938 65.976563 419.632813 63.988281 L 423.199219 63.988281 C 422.527344 65.28125 421.753906 66.472656 420.886719 67.570313 C 420.015625 68.667969 419.015625 69.628906 417.878906 70.449219 C 416.742188 71.265625 415.464844 71.902344 414.046875 72.355469 C 412.628906 72.808594 411.046875 73.035156 409.308594 73.035156 C 407.109375 73.035156 405.292969 72.667969 403.855469 71.9375 C 402.417969 71.207031 401.316406 70.203125 400.554688 68.929688 C 399.792969 67.660156 399.359375 66.160156 399.253906 64.433594 C 399.144531 62.707031 399.304688 60.851563 399.730469 58.863281 C 400.15625 56.878906 400.847656 55.015625 401.808594 53.269531 C 402.765625 51.527344 403.925781 50.003906 405.292969 48.695313 C 406.65625 47.390625 408.199219 46.359375 409.921875 45.609375 C 411.640625 44.859375 413.496094 44.484375 415.484375 44.484375 C 419.28125 44.484375 421.984375 45.769531 423.597656 48.328125 C 425.214844 50.890625 425.472656 54.613281 424.371094 59.492188 L 402.976563 59.492188 "/>
<path style=" stroke:none;fill-rule:nonzero;fill:rgb(0%,28.599548%,53.69873%);fill-opacity:1;" d="M 431.023438 72.304688 L 427.828125 72.304688 L 433.683594 45.21875 L 436.875 45.21875 L 435.757813 50.289063 L 435.867188 50.289063 C 437.214844 48.128906 438.6875 46.621094 440.28125 45.769531 C 441.878906 44.914063 443.832031 44.484375 446.136719 44.484375 L 445.390625 47.886719 C 443.617188 47.851563 442.082031 48.128906 440.789063 48.722656 C 439.492188 49.3125 438.394531 50.117188 437.488281 51.128906 C 436.585938 52.136719 435.839844 53.332031 435.253906 54.710938 C 434.667969 56.085938 434.214844 57.523438 433.894531 59.023438 L 431.023438 72.304688 "/>
<path style=" stroke:none;fill-rule:nonzero;fill:rgb(0%,28.599548%,53.69873%);fill-opacity:1;" d="M 459.214844 72.304688 L 467.691406 33.109375 L 471.019531 33.109375 L 462.539063 72.304688 L 459.214844 72.304688 "/>
<path style=" stroke:none;fill-rule:nonzero;fill:rgb(0%,28.599548%,53.69873%);fill-opacity:1;" d="M 478.605469 72.304688 L 484.71875 44.019531 L 488.054688 44.019531 L 481.941406 72.304688 Z M 485.886719 37.851563 L 486.941406 32.992188 L 490.609375 32.992188 L 489.554688 37.851563 L 485.886719 37.851563 "/>
<path style=" stroke:none;fill-rule:nonzero;fill:rgb(0%,28.599548%,53.69873%);fill-opacity:1;" d="M 501.773438 72.40625 C 501.382813 72.476563 500.839844 72.601563 500.148438 72.773438 C 499.457031 72.949219 498.722656 73.035156 497.9375 73.035156 C 496.34375 73.035156 495.21875 72.644531 494.5625 71.859375 C 493.902344 71.074219 493.789063 69.671875 494.214844 67.648438 L 498.472656 47.832031 L 494.585938 47.832031 L 495.171875 45.21875 L 499.058594 45.21875 L 500.707031 37.691406 L 503.898438 37.691406 L 502.25 45.21875 L 507.414063 45.21875 L 506.828125 47.832031 L 501.664063 47.832031 L 497.675781 66.394531 C 497.53125 67.058594 497.425781 67.632813 497.355469 68.121094 C 497.28125 68.609375 497.308594 69.007813 497.433594 69.324219 C 497.558594 69.636719 497.789063 69.863281 498.128906 70.003906 C 498.460938 70.140625 498.96875 70.210938 499.644531 70.210938 C 500.070313 70.210938 500.503906 70.175781 500.945313 70.109375 C 501.390625 70.039063 501.84375 69.953125 502.304688 69.84375 L 501.773438 72.40625 "/>
<path style=" stroke:none;fill-rule:nonzero;fill:rgb(0%,28.599548%,53.69873%);fill-opacity:1;" d="M 527.808594 58.082031 C 526.410156 58.640625 525.050781 59.003906 523.734375 59.179688 C 522.417969 59.355469 521.09375 59.492188 519.761719 59.597656 C 517.429688 59.773438 515.523438 60.3125 514.039063 61.21875 C 512.558594 62.125 511.632813 63.503906 511.265625 65.351563 C 511.101563 66.1875 511.117188 66.910156 511.316406 67.519531 C 511.515625 68.128906 511.839844 68.636719 512.289063 69.035156 C 512.738281 69.4375 513.28125 69.734375 513.914063 69.925781 C 514.546875 70.117188 515.214844 70.210938 515.914063 70.210938 C 517.113281 70.210938 518.304688 70.054688 519.488281 69.742188 C 520.671875 69.429688 521.769531 68.949219 522.785156 68.304688 C 523.800781 67.660156 524.675781 66.839844 525.410156 65.84375 C 526.144531 64.851563 526.660156 63.675781 526.960938 62.316406 Z M 523.0625 56.511719 C 523.628906 56.441406 524.316406 56.339844 525.136719 56.199219 C 525.949219 56.058594 526.644531 55.867188 527.210938 55.625 C 527.773438 55.378906 528.164063 54.96875 528.382813 54.394531 C 528.601563 53.820313 528.757813 53.289063 528.859375 52.800781 C 529.023438 52 529.058594 51.265625 528.957031 50.605469 C 528.859375 49.941406 528.601563 49.367188 528.183594 48.878906 C 527.765625 48.390625 527.183594 48.007813 526.433594 47.726563 C 525.683594 47.449219 524.726563 47.308594 523.5625 47.308594 C 521.496094 47.308594 519.695313 47.746094 518.164063 48.617188 C 516.628906 49.488281 515.496094 51.09375 514.765625 53.425781 L 511.714844 53.425781 C 512.148438 51.824219 512.773438 50.457031 513.589844 49.324219 C 514.40625 48.191406 515.363281 47.265625 516.464844 46.550781 C 517.5625 45.835938 518.769531 45.316406 520.085938 44.984375 C 521.402344 44.652344 522.761719 44.484375 524.160156 44.484375 C 525.460938 44.484375 526.652344 44.632813 527.734375 44.929688 C 528.816406 45.226563 529.714844 45.699219 530.433594 46.34375 C 531.148438 46.988281 531.640625 47.851563 531.90625 48.929688 C 532.171875 50.011719 532.15625 51.335938 531.855469 52.90625 L 528.859375 67.648438 C 528.589844 68.871094 528.632813 69.644531 528.980469 69.976563 C 529.332031 70.308594 530.191406 70.230469 531.558594 69.742188 L 531.058594 72.199219 C 530.824219 72.269531 530.464844 72.375 529.980469 72.511719 C 529.5 72.652344 529.039063 72.722656 528.605469 72.722656 C 528.175781 72.722656 527.742188 72.667969 527.308594 72.566406 C 526.34375 72.390625 525.792969 71.910156 525.660156 71.128906 C 525.527344 70.34375 525.542969 69.480469 525.710938 68.539063 C 524.144531 70.003906 522.46875 71.117188 520.6875 71.886719 C 518.902344 72.652344 517.0625 73.035156 515.164063 73.035156 C 514.03125 73.035156 512.972656 72.878906 511.988281 72.566406 C 511.007813 72.25 510.183594 71.765625 509.515625 71.101563 C 508.851563 70.4375 508.382813 69.628906 508.117188 68.667969 C 507.851563 67.710938 507.851563 66.570313 508.117188 65.246094 C 509.015625 60.644531 512.582031 57.925781 518.8125 57.089844 L 523.0625 56.511719 "/>
<path style=" stroke:none;fill-rule:nonzero;fill:rgb(0%,28.599548%,53.69873%);fill-opacity:1;" d="M 534.855469 72.304688 L 543.339844 33.070313 L 546.667969 33.070313 L 538.183594 72.304688 L 534.855469 72.304688 "/>
<path style=" stroke:none;fill-rule:nonzero;fill:rgb(0%,28.599548%,53.69873%);fill-opacity:1;" d="M 546.023438 72.304688 L 552.074219 44.304688 L 555.378906 44.304688 L 549.324219 72.304688 Z M 553.230469 38.199219 L 554.277344 33.386719 L 557.90625 33.386719 L 556.863281 38.199219 L 553.230469 38.199219 "/>
<path style=" stroke:none;fill-rule:nonzero;fill:rgb(0%,28.599548%,53.69873%);fill-opacity:1;" d="M 576.816406 58.082031 C 575.414063 58.640625 574.058594 59.003906 572.742188 59.179688 C 571.425781 59.355469 570.101563 59.492188 568.769531 59.597656 C 566.4375 59.773438 564.53125 60.3125 563.046875 61.21875 C 561.5625 62.125 560.640625 63.503906 560.273438 65.351563 C 560.105469 66.1875 560.121094 66.910156 560.324219 67.519531 C 560.523438 68.128906 560.847656 68.636719 561.296875 69.035156 C 561.746094 69.4375 562.289063 69.734375 562.921875 69.925781 C 563.554688 70.117188 564.222656 70.210938 564.921875 70.210938 C 566.121094 70.210938 567.3125 70.054688 568.492188 69.742188 C 569.675781 69.429688 570.777344 68.949219 571.792969 68.304688 C 572.808594 67.660156 573.683594 66.839844 574.417969 65.84375 C 575.148438 64.851563 575.664063 63.675781 575.964844 62.316406 Z M 572.066406 56.511719 C 572.632813 56.441406 573.324219 56.339844 574.140625 56.199219 C 574.957031 56.058594 575.648438 55.867188 576.214844 55.625 C 576.78125 55.378906 577.175781 54.96875 577.390625 54.394531 C 577.605469 53.820313 577.765625 53.289063 577.867188 52.800781 C 578.03125 52 578.066406 51.265625 577.964844 50.605469 C 577.867188 49.941406 577.605469 49.367188 577.191406 48.878906 C 576.773438 48.390625 576.191406 48.007813 575.441406 47.726563 C 574.691406 47.449219 573.734375 47.308594 572.566406 47.308594 C 570.503906 47.308594 568.703125 47.746094 567.171875 48.617188 C 565.636719 49.488281 564.503906 51.09375 563.769531 53.425781 L 560.722656 53.425781 C 561.15625 51.824219 561.78125 50.457031 562.597656 49.324219 C 563.414063 48.191406 564.371094 47.265625 565.46875 46.550781 C 566.570313 45.835938 567.777344 45.316406 569.09375 44.984375 C 570.410156 44.652344 571.769531 44.484375 573.167969 44.484375 C 574.464844 44.484375 575.65625 44.632813 576.742188 44.929688 C 577.824219 45.226563 578.722656 45.699219 579.4375 46.34375 C 580.15625 46.988281 580.648438 47.851563 580.914063 48.929688 C 581.179688 50.011719 581.164063 51.335938 580.863281 52.90625 L 577.867188 67.648438 C 577.597656 68.871094 577.640625 69.644531 577.988281 69.976563 C 578.339844 70.308594 579.199219 70.230469 580.5625 69.742188 L 580.0625 72.199219 C 579.832031 72.269531 579.472656 72.375 578.988281 72.511719 C 578.507813 72.652344 578.046875 72.722656 577.617188 72.722656 C 577.183594 72.722656 576.75 72.667969 576.316406 72.566406 C 575.351563 72.390625 574.800781 71.910156 574.664063 71.128906 C 574.53125 70.34375 574.550781 69.480469 574.714844 68.539063 C 573.152344 70.003906 571.476563 71.117188 569.691406 71.886719 C 567.910156 72.652344 566.070313 73.035156 564.171875 73.035156 C 563.039063 73.035156 561.980469 72.878906 560.996094 72.566406 C 560.015625 72.25 559.191406 71.765625 558.523438 71.101563 C 557.855469 70.4375 557.390625 69.628906 557.125 68.667969 C 556.859375 67.710938 556.859375 66.570313 557.125 65.246094 C 558.023438 60.644531 561.589844 57.925781 567.820313 57.089844 L 572.066406 56.511719 "/>
<path style=" stroke:none;fill-rule:evenodd;fill:rgb(0%,28.599548%,53.69873%);fill-opacity:1;" d="M 473.269531 43.523438 L 477.785156 33.386719 L 481.894531 33.386719 L 475.972656 43.523438 L 473.269531 43.523438 "/>
<path style=" stroke:none;fill-rule:nonzero;fill:rgb(0%,28.599548%,53.69873%);fill-opacity:1;" d="M 23.847656 63.847656 C 23.847656 58.257813 32.609375 60.605469 35.058594 58.59375 L 35.113281 58.59375 C 34.773438 61.21875 33.636719 66.867188 27.773438 66.867188 C 25.839844 66.867188 23.847656 66.140625 23.847656 63.847656 Z M 27.203125 51.828125 C 27.605469 49.085938 29.480469 48.191406 32.554688 48.191406 C 35.457031 48.191406 36.652344 49.3125 36.652344 50.988281 C 36.652344 54.789063 32.097656 54.566406 28.796875 54.734375 C 21.230469 55.292969 14.171875 56.800781 14.171875 64.574219 C 14.171875 70.554688 18.269531 72.738281 23.789063 72.738281 C 28 72.738281 30.902344 71.675781 32.726563 69.105469 L 32.839844 69.105469 C 32.839844 70.613281 32.839844 70.5 33.066406 71.898438 L 42.570313 71.898438 C 42.398438 71.394531 42.171875 70.667969 42.171875 69.660156 C 42.171875 68.097656 42.570313 66.253906 43.082031 64.238281 C 43.765625 61.554688 45.984375 53.503906 45.984375 49.648438 C 45.984375 44 40.691406 42.042969 32.496094 42.042969 C 25.269531 42.042969 19.578125 44.277344 18.042969 51.828125 L 27.203125 51.828125 "/>
<path style=" stroke:none;fill-rule:nonzero;fill:rgb(0%,28.599548%,53.69873%);fill-opacity:1;" d="M 82.046875 42.882813 L 72.371094 42.882813 L 68.957031 58.59375 C 68.160156 62.671875 66.339844 65.46875 62.242188 65.46875 C 60.023438 65.46875 59.054688 64.128906 59.054688 62.449219 C 59.054688 61.332031 59.167969 60.324219 59.453125 58.984375 L 62.808594 42.882813 L 53.136719 42.882813 L 49.324219 60.492188 C 49.039063 61.722656 48.753906 63.230469 48.753906 65.132813 C 48.753906 66.699219 49.550781 72.738281 57.574219 72.738281 C 61.558594 72.738281 65.085938 71.171875 67.25 67.929688 L 67.363281 67.929688 L 66.511719 71.898438 L 75.785156 71.898438 L 82.046875 42.882813 "/>
<path style=" stroke:none;fill-rule:nonzero;fill:rgb(0%,28.599548%,53.69873%);fill-opacity:1;" d="M 102.960938 34.664063 L 93.285156 34.664063 L 91.40625 43.386719 L 86.511719 43.386719 L 85.203125 49.535156 L 90.097656 49.535156 L 87.820313 60.046875 C 87.082031 63.457031 86.683594 65.695313 86.683594 67.707031 C 86.683594 72.121094 91.351563 72.738281 95.84375 72.738281 C 97.722656 72.738281 99.542969 72.515625 101.480469 72.402344 L 102.960938 65.300781 C 101.933594 65.355469 100.96875 65.46875 99.941406 65.46875 C 98.292969 65.46875 96.929688 65.355469 96.929688 63.960938 C 96.929688 62.953125 97.15625 61.78125 97.4375 60.492188 L 99.773438 49.535156 L 105.917969 49.535156 L 107.226563 43.386719 L 101.136719 43.386719 L 102.960938 34.664063 "/>
<path style=" stroke:none;fill-rule:nonzero;fill:rgb(0%,28.599548%,53.69873%);fill-opacity:1;" d="M 108.386719 60.101563 C 108.386719 68.65625 114.359375 72.738281 122.554688 72.738281 C 133.253906 72.738281 139.910156 65.191406 139.910156 54.847656 C 139.910156 46.515625 134.050781 42.042969 125.96875 42.042969 C 115.269531 42.042969 108.386719 49.816406 108.386719 60.101563 Z M 118.058594 59.765625 C 118.058594 55.851563 120.109375 49.03125 125.34375 49.03125 C 128.984375 49.03125 130.238281 51.601563 130.238281 55.238281 C 130.238281 59.710938 128.304688 65.75 122.78125 65.75 C 119.367188 65.75 118.058594 63.066406 118.058594 59.765625 "/>
<path style=" stroke:none;fill-rule:nonzero;fill:rgb(0%,28.599548%,53.69873%);fill-opacity:1;" d="M 143.789063 62.394531 C 144.078125 69.941406 148.914063 72.738281 156.425781 72.738281 C 163.367188 72.738281 171.5625 71.117188 171.5625 62.226563 C 171.5625 56.523438 168.433594 55.292969 162.96875 53.953125 C 159.496094 53.113281 156.367188 52.722656 156.367188 50.652344 C 156.367188 48.585938 158.757813 47.914063 160.75 47.914063 C 161.828125 47.914063 163.085938 48.25 163.652344 48.917969 C 164.222656 49.535156 164.449219 50.429688 164.390625 51.4375 L 173.15625 51.4375 C 173.554688 44 167.125 42.042969 160.976563 42.042969 C 154.660156 42.042969 146.695313 44.109375 146.695313 51.882813 C 146.695313 57.363281 150.507813 58.871094 154.832031 59.820313 C 159.554688 60.996094 161.886719 61.109375 161.886719 63.625 C 161.886719 65.972656 159.214844 66.585938 157.5625 66.585938 C 156.027344 66.585938 154.660156 66.253906 153.75 65.414063 C 153.066406 64.6875 152.613281 63.734375 152.667969 62.394531 L 143.789063 62.394531 "/>
<path style=" stroke:none;fill-rule:nonzero;fill:rgb(0%,28.599548%,53.69873%);fill-opacity:1;" d="M 193.8125 34.664063 L 184.140625 34.664063 L 182.261719 43.386719 L 177.367188 43.386719 L 176.058594 49.535156 L 180.953125 49.535156 L 178.675781 60.046875 C 177.9375 63.457031 177.539063 65.695313 177.539063 67.707031 C 177.539063 72.121094 182.203125 72.738281 186.699219 72.738281 C 188.578125 72.738281 190.398438 72.515625 192.335938 72.402344 L 193.8125 65.300781 C 192.789063 65.355469 191.820313 65.46875 190.796875 65.46875 C 189.148438 65.46875 187.78125 65.355469 187.78125 63.960938 C 187.78125 62.953125 188.007813 61.78125 188.292969 60.492188 L 190.628906 49.535156 L 196.773438 49.535156 L 198.082031 43.386719 L 191.992188 43.386719 L 193.8125 34.664063 "/>
<path style=" stroke:none;fill-rule:nonzero;fill:rgb(0%,28.599548%,53.69873%);fill-opacity:1;" d="M 197.511719 72.738281 L 207.1875 72.738281 L 210.03125 59.429688 C 211 54.511719 213.046875 51.210938 218.339844 51.210938 C 220.160156 51.210938 221.414063 51.4375 222.722656 51.769531 L 224.601563 43.386719 C 223.632813 42.9375 222.664063 42.882813 221.355469 42.882813 C 217.429688 42.882813 214.074219 45.0625 212.082031 48.472656 L 211.96875 48.472656 L 213.046875 43.71875 L 203.660156 43.71875 L 197.511719 72.738281 "/>
<path style=" stroke:none;fill-rule:nonzero;fill:rgb(0%,28.599548%,53.69873%);fill-opacity:1;" d="M 230.519531 63.847656 C 230.519531 58.257813 239.285156 60.605469 241.730469 58.59375 L 241.785156 58.59375 C 241.445313 61.21875 240.308594 66.867188 234.445313 66.867188 C 232.511719 66.867188 230.519531 66.140625 230.519531 63.847656 Z M 233.878906 51.828125 C 234.277344 49.085938 236.152344 48.191406 239.226563 48.191406 C 242.128906 48.191406 243.324219 49.3125 243.324219 50.988281 C 243.324219 54.789063 238.769531 54.566406 235.46875 54.734375 C 227.902344 55.292969 220.84375 56.800781 220.84375 64.574219 C 220.84375 70.554688 224.941406 72.738281 230.464844 72.738281 C 234.671875 72.738281 237.578125 71.675781 239.394531 69.105469 L 239.511719 69.105469 C 239.511719 70.613281 239.511719 70.5 239.738281 71.898438 L 249.242188 71.898438 C 249.070313 71.394531 248.84375 70.667969 248.84375 69.660156 C 248.84375 68.097656 249.242188 66.253906 249.753906 64.238281 C 250.4375 61.554688 252.65625 53.503906 252.65625 49.648438 C 252.65625 44 247.363281 42.042969 239.171875 42.042969 C 231.941406 42.042969 226.253906 44.277344 224.714844 51.828125 L 233.878906 51.828125 "/>
<path style=" stroke:none;fill-rule:nonzero;fill:rgb(0%,28.599548%,53.69873%);fill-opacity:1;" d="M 270.183594 65.46875 C 266.65625 65.46875 265.289063 62.898438 265.289063 59.820313 C 265.289063 55.292969 267.28125 49.3125 272.746094 49.3125 C 275.933594 49.3125 277.695313 51.492188 277.695313 54.679688 C 277.695313 59.09375 275.589844 65.46875 270.183594 65.46875 Z M 292.265625 31.980469 L 282.589844 31.980469 L 279.515625 46.738281 L 279.402344 46.738281 C 278.265625 43.496094 275.421875 42.042969 271.324219 42.042969 C 261.078125 42.042969 255.617188 50.988281 255.617188 60.382813 C 255.617188 67.371094 258.804688 72.738281 266.484375 72.738281 C 270.183594 72.738281 273.089844 71.394531 275.078125 68.320313 L 275.191406 68.320313 L 274.394531 71.898438 L 283.785156 71.898438 L 292.265625 31.980469 "/>
<path style=" stroke:none;fill-rule:nonzero;fill:rgb(0%,28.599548%,53.69873%);fill-opacity:1;" d="M 322.199219 59.867188 C 322.425781 58.246094 322.539063 56.625 322.539063 54.894531 C 322.539063 46.507813 316.679688 42.203125 309.054688 42.203125 C 298.355469 42.203125 291.46875 49.972656 291.46875 60.261719 C 291.46875 68.816406 297.445313 72.898438 305.640625 72.898438 C 312.808594 72.898438 318.785156 70.214844 321.117188 63.28125 L 311.671875 63.28125 C 310.929688 65.238281 309.335938 66.46875 306.039063 66.46875 C 302.851563 66.46875 301.085938 64.84375 300.800781 61.824219 C 300.800781 60.875 300.859375 60.429688 300.914063 59.867188 Z M 301.597656 54.558594 C 302.621094 50.921875 304.730469 48.632813 308.710938 48.632813 C 311.953125 48.632813 313.492188 51.316406 313.207031 54.558594 L 301.597656 54.558594 "/>
</g>
</svg>
